<?xml version="1.0" encoding="UTF-8" standalone="no"?>
<!DOCTYPE svg PUBLIC "-//W3C//DTD SVG 1.1//EN"
 "http://www.w3.org/Graphics/SVG/1.1/DTD/svg11.dtd">
<!-- Generated by graphviz version 2.40.1 (20161225.0304)
 -->
<!-- Title: dependencies Pages: 1 -->
<svg width="3259pt" height="436pt"
 viewBox="0.00 0.00 3259.00 436.00" xmlns="http://www.w3.org/2000/svg" xmlns:xlink="http://www.w3.org/1999/xlink">
<g id="graph0" class="graph" transform="scale(1 1) rotate(0) translate(4 432)">
<title>dependencies</title>
<polygon fill="#ffffff" stroke="transparent" points="-4,4 -4,-432 3255,-432 3255,4 -4,4"/>
<text text-anchor="start" x="1604.5091" y="-42.4" font-family="sans-serif" font-weight="bold" font-size="14.00" fill="#000000">Legend</text>
<polygon fill="#ffffb3" stroke="transparent" points="1391.5,-10 1391.5,-30 1411.5,-30 1411.5,-10 1391.5,-10"/>
<text text-anchor="start" x="1415.129" y="-15.4" font-family="sans-serif" font-size="14.00" fill="#000000"> &#160;Declarations</text>
<polygon fill="#8dd3c7" stroke="transparent" points="1504.5,-10 1504.5,-30 1524.5,-30 1524.5,-10 1504.5,-10"/>
<text text-anchor="start" x="1528.2251" y="-15.4" font-family="sans-serif" font-size="14.00" fill="#000000"> &#160;Module</text>
<polygon fill="#80b1d3" stroke="transparent" points="1590.5,-10 1590.5,-30 1610.5,-30 1610.5,-10 1590.5,-10"/>
<text text-anchor="start" x="1614.2812" y="-15.4" font-family="sans-serif" font-size="14.00" fill="#000000"> &#160;Bootstrap</text>
<polygon fill="#fdb462" stroke="transparent" points="1687.5,-10 1687.5,-30 1707.5,-30 1707.5,-10 1687.5,-10"/>
<text text-anchor="start" x="1711.1732" y="-15.4" font-family="sans-serif" font-size="14.00" fill="#000000"> &#160;Providers</text>
<polygon fill="#fb8072" stroke="transparent" points="1783.5,-10 1783.5,-30 1803.5,-30 1803.5,-10 1783.5,-10"/>
<text text-anchor="start" x="1807.2258" y="-15.4" font-family="sans-serif" font-size="14.00" fill="#000000"> &#160;Exports</text>
<g id="clust1" class="cluster">
<title>cluster_AppModule</title>
<polygon fill="none" stroke="#000000" stroke-dasharray="1,5" points="890,-146 890,-420 1675,-420 1675,-146 890,-146"/>
</g>
<g id="clust2" class="cluster">
<title>cluster_AppModule_declarations</title>
<polygon fill="none" stroke="#000000" points="1545,-230 1545,-282 1667,-282 1667,-230 1545,-230"/>
</g>
<g id="clust4" class="cluster">
<title>cluster_AppModule_imports</title>
<polygon fill="none" stroke="#000000" points="898,-154 898,-282 1537,-282 1537,-154 898,-154"/>
</g>
<g id="clust6" class="cluster">
<title>cluster_AppModule_bootstrap</title>
<polygon fill="none" stroke="#000000" points="1142,-360 1142,-412 1266,-412 1266,-360 1142,-360"/>
</g>
<g id="clust20" class="cluster">
<title>cluster_HomeModule</title>
<polygon fill="none" stroke="#000000" stroke-dasharray="1,5" points="801,-70 801,-138 1255,-138 1255,-70 801,-70"/>
</g>
<g id="clust21" class="cluster">
<title>cluster_HomeModule_declarations</title>
<polygon fill="none" stroke="#000000" points="1115,-78 1115,-130 1247,-130 1247,-78 1115,-78"/>
</g>
<g id="clust23" class="cluster">
<title>cluster_HomeModule_imports</title>
<polygon fill="none" stroke="#000000" points="953,-78 953,-130 1107,-130 1107,-78 953,-78"/>
</g>
<g id="clust24" class="cluster">
<title>cluster_HomeModule_exports</title>
<polygon fill="none" stroke="#000000" points="809,-78 809,-130 945,-130 945,-78 809,-78"/>
</g>
<g id="clust33" class="cluster">
<title>cluster_ItemsModule</title>
<polygon fill="none" stroke="#000000" stroke-dasharray="1,5" points="8,-146 8,-214 882,-214 882,-146 8,-146"/>
</g>
<g id="clust34" class="cluster">
<title>cluster_ItemsModule_declarations</title>
<polygon fill="none" stroke="#000000" points="332,-154 332,-206 874,-206 874,-154 332,-154"/>
</g>
<g id="clust39" class="cluster">
<title>cluster_ItemsModule_imports</title>
<polygon fill="none" stroke="#000000" points="172,-154 172,-206 324,-206 324,-154 172,-154"/>
</g>
<g id="clust40" class="cluster">
<title>cluster_ItemsModule_exports</title>
<polygon fill="none" stroke="#000000" points="16,-154 16,-206 164,-206 164,-154 16,-154"/>
</g>
<g id="clust49" class="cluster">
<title>cluster_PageNotFoundModule</title>
<polygon fill="none" stroke="#000000" stroke-dasharray="1,5" points="1263,-70 1263,-138 1865,-138 1865,-70 1263,-70"/>
</g>
<g id="clust50" class="cluster">
<title>cluster_PageNotFoundModule_declarations</title>
<polygon fill="none" stroke="#000000" points="1675,-78 1675,-130 1857,-130 1857,-78 1675,-78"/>
</g>
<g id="clust52" class="cluster">
<title>cluster_PageNotFoundModule_imports</title>
<polygon fill="none" stroke="#000000" points="1463,-78 1463,-130 1667,-130 1667,-78 1463,-78"/>
</g>
<g id="clust53" class="cluster">
<title>cluster_PageNotFoundModule_exports</title>
<polygon fill="none" stroke="#000000" points="1271,-78 1271,-130 1455,-130 1455,-78 1271,-78"/>
</g>
<g id="clust62" class="cluster">
<title>cluster_SharedModule</title>
<polygon fill="none" stroke="#000000" stroke-dasharray="1,5" points="1683,-222 1683,-290 3243,-290 3243,-222 1683,-222"/>
</g>
<g id="clust63" class="cluster">
<title>cluster_SharedModule_declarations</title>
<polygon fill="none" stroke="#000000" points="2478,-230 2478,-282 3235,-282 3235,-230 2478,-230"/>
</g>
<g id="clust71" class="cluster">
<title>cluster_SharedModule_exports</title>
<polygon fill="none" stroke="#000000" points="1691,-230 1691,-282 2470,-282 2470,-230 1691,-230"/>
</g>
<!-- AppComponent -->
<g id="node1" class="node">
<title>AppComponent</title>
<polygon fill="#ffffb3" stroke="#000000" points="1658.9399,-274 1553.0601,-274 1553.0601,-238 1658.9399,-238 1658.9399,-274"/>
<text text-anchor="middle" x="1606" y="-251.8" font-family="Times,serif" font-size="14.00" fill="#000000">AppComponent</text>
</g>
<!-- AppModule -->
<g id="node2" class="node">
<title>AppModule</title>
<polygon fill="#8dd3c7" stroke="#000000" points="1245.6571,-339 1242.6571,-343 1221.6571,-343 1218.6571,-339 1162.3429,-339 1162.3429,-303 1245.6571,-303 1245.6571,-339"/>
<text text-anchor="middle" x="1204" y="-316.8" font-family="Times,serif" font-size="14.00" fill="#000000">AppModule</text>
</g>
<!-- AppComponent&#45;&gt;AppModule -->
<g id="edge1" class="edge">
<title>AppComponent&#45;&gt;AppModule</title>
<path fill="none" stroke="#000000" d="M1553.0116,-256C1448.2997,-256 1224.9141,-256 1224.9141,-256 1224.9141,-256 1224.9141,-292.8939 1224.9141,-292.8939"/>
<polygon fill="#000000" stroke="#000000" points="1221.4142,-292.8938 1224.9141,-302.8939 1228.4142,-292.8939 1221.4142,-292.8938"/>
</g>
<!-- AppComponent  -->
<g id="node9" class="node">
<title>AppComponent </title>
<polygon fill="#80b1d3" stroke="#000000" points="1258.439,-404 1149.561,-404 1149.561,-368 1258.439,-368 1258.439,-404"/>
<text text-anchor="middle" x="1204" y="-381.8" font-family="Times,serif" font-size="14.00" fill="#000000">AppComponent </text>
</g>
<!-- AppModule&#45;&gt;AppComponent  -->
<g id="edge8" class="edge">
<title>AppModule&#45;&gt;AppComponent </title>
<path fill="none" stroke="#000000" stroke-dasharray="1,5" d="M1204,-339.1061C1204,-339.1061 1204,-357.991 1204,-357.991"/>
<polygon fill="#000000" stroke="#000000" points="1200.5001,-357.9909 1204,-367.991 1207.5001,-357.991 1200.5001,-357.9909"/>
</g>
<!-- AppRoutingModule -->
<g id="node3" class="node">
<title>AppRoutingModule</title>
<polygon fill="#8dd3c7" stroke="#000000" points="1034.2744,-198 1031.2744,-202 1010.2744,-202 1007.2744,-198 905.7256,-198 905.7256,-162 1034.2744,-162 1034.2744,-198"/>
<text text-anchor="middle" x="970" y="-175.8" font-family="Times,serif" font-size="14.00" fill="#000000">AppRoutingModule</text>
</g>
<!-- AppRoutingModule&#45;&gt;AppModule -->
<g id="edge2" class="edge">
<title>AppRoutingModule&#45;&gt;AppModule</title>
<path fill="none" stroke="#000000" d="M1015.3563,-198.0251C1015.3563,-237.2783 1015.3563,-327 1015.3563,-327 1015.3563,-327 1152.1338,-327 1152.1338,-327"/>
<polygon fill="#000000" stroke="#000000" points="1152.1339,-330.5001 1162.1338,-327 1152.1338,-323.5001 1152.1339,-330.5001"/>
</g>
<!-- CoreModule -->
<g id="node4" class="node">
<title>CoreModule</title>
<polygon fill="#8dd3c7" stroke="#000000" points="1139.2619,-198 1136.2619,-202 1115.2619,-202 1112.2619,-198 1052.7381,-198 1052.7381,-162 1139.2619,-162 1139.2619,-198"/>
<text text-anchor="middle" x="1096" y="-175.8" font-family="Times,serif" font-size="14.00" fill="#000000">CoreModule</text>
</g>
<!-- CoreModule&#45;&gt;AppModule -->
<g id="edge3" class="edge">
<title>CoreModule&#45;&gt;AppModule</title>
<path fill="none" stroke="#000000" d="M1096,-198.2067C1096,-235.0559 1096,-315 1096,-315 1096,-315 1152.2444,-315 1152.2444,-315"/>
<polygon fill="#000000" stroke="#000000" points="1152.2444,-318.5001 1162.2444,-315 1152.2443,-311.5001 1152.2444,-318.5001"/>
</g>
<!-- HomeModule -->
<g id="node5" class="node">
<title>HomeModule</title>
<polygon fill="#8dd3c7" stroke="#000000" points="1250.7619,-198 1247.7619,-202 1226.7619,-202 1223.7619,-198 1157.2381,-198 1157.2381,-162 1250.7619,-162 1250.7619,-198"/>
<text text-anchor="middle" x="1204" y="-175.8" font-family="Times,serif" font-size="14.00" fill="#000000">HomeModule</text>
</g>
<!-- HomeModule&#45;&gt;AppModule -->
<g id="edge4" class="edge">
<title>HomeModule&#45;&gt;AppModule</title>
<path fill="none" stroke="#000000" d="M1204,-198.1446C1204,-198.1446 1204,-292.925 1204,-292.925"/>
<polygon fill="#000000" stroke="#000000" points="1200.5001,-292.925 1204,-302.925 1207.5001,-292.925 1200.5001,-292.925"/>
</g>
<!-- HomeComponent  -->
<g id="node12" class="node">
<title>HomeComponent </title>
<polygon fill="#fb8072" stroke="#000000" points="936.5442,-122 817.4558,-122 817.4558,-86 936.5442,-86 936.5442,-122"/>
<text text-anchor="middle" x="877" y="-99.8" font-family="Times,serif" font-size="14.00" fill="#000000">HomeComponent </text>
</g>
<!-- HomeModule&#45;&gt;HomeComponent  -->
<g id="edge11" class="edge">
<title>HomeModule&#45;&gt;HomeComponent </title>
<path fill="none" stroke="#000000" stroke-dasharray="5,2" d="M1177.5324,-161.9421C1177.5324,-157.5055 1177.5324,-154 1177.5324,-154 1177.5324,-154 921.0675,-154 921.0675,-154 921.0675,-154 921.0675,-132.0511 921.0675,-132.0511"/>
<polygon fill="#000000" stroke="#000000" points="924.5676,-132.0511 921.0675,-122.0511 917.5676,-132.0512 924.5676,-132.0511"/>
</g>
<!-- ItemsModule -->
<g id="node6" class="node">
<title>ItemsModule</title>
<polygon fill="#8dd3c7" stroke="#000000" points="996.1515,-274 993.1515,-278 972.1515,-278 969.1515,-274 905.8485,-274 905.8485,-238 996.1515,-238 996.1515,-274"/>
<text text-anchor="middle" x="951" y="-251.8" font-family="Times,serif" font-size="14.00" fill="#000000">ItemsModule</text>
</g>
<!-- ItemsModule&#45;&gt;AppModule -->
<g id="edge5" class="edge">
<title>ItemsModule&#45;&gt;AppModule</title>
<path fill="none" stroke="#000000" d="M996.2994,-265C1063.8407,-265 1183.0859,-265 1183.0859,-265 1183.0859,-265 1183.0859,-292.973 1183.0859,-292.973"/>
<polygon fill="#000000" stroke="#000000" points="1179.586,-292.973 1183.0859,-302.973 1186.586,-292.973 1179.586,-292.973"/>
</g>
<!-- ListItemComponent  -->
<g id="node18" class="node">
<title>ListItemComponent </title>
<polygon fill="#fb8072" stroke="#000000" points="156.2675,-198 23.7325,-198 23.7325,-162 156.2675,-162 156.2675,-198"/>
<text text-anchor="middle" x="90" y="-175.8" font-family="Times,serif" font-size="14.00" fill="#000000">ListItemComponent </text>
</g>
<!-- ItemsModule&#45;&gt;ListItemComponent  -->
<g id="edge18" class="edge">
<title>ItemsModule&#45;&gt;ListItemComponent </title>
<path fill="none" stroke="#000000" stroke-dasharray="5,2" d="M905.6194,-269C728.0399,-269 90,-269 90,-269 90,-269 90,-208.0105 90,-208.0105"/>
<polygon fill="#000000" stroke="#000000" points="93.5001,-208.0104 90,-198.0105 86.5001,-208.0105 93.5001,-208.0104"/>
</g>
<!-- PageNotFoundModule -->
<g id="node7" class="node">
<title>PageNotFoundModule</title>
<polygon fill="#8dd3c7" stroke="#000000" points="1412.5421,-198 1409.5421,-202 1388.5421,-202 1385.5421,-198 1269.4579,-198 1269.4579,-162 1412.5421,-162 1412.5421,-198"/>
<text text-anchor="middle" x="1341" y="-175.8" font-family="Times,serif" font-size="14.00" fill="#000000">PageNotFoundModule</text>
</g>
<!-- PageNotFoundModule&#45;&gt;AppModule -->
<g id="edge6" class="edge">
<title>PageNotFoundModule&#45;&gt;AppModule</title>
<path fill="none" stroke="#000000" d="M1341,-198.2067C1341,-235.0559 1341,-315 1341,-315 1341,-315 1255.8489,-315 1255.8489,-315"/>
<polygon fill="#000000" stroke="#000000" points="1255.849,-311.5001 1245.8489,-315 1255.8489,-318.5001 1255.849,-311.5001"/>
</g>
<!-- PageNotFoundComponent  -->
<g id="node21" class="node">
<title>PageNotFoundComponent </title>
<polygon fill="#fb8072" stroke="#000000" points="1447.3241,-122 1278.6759,-122 1278.6759,-86 1447.3241,-86 1447.3241,-122"/>
<text text-anchor="middle" x="1363" y="-99.8" font-family="Times,serif" font-size="14.00" fill="#000000">PageNotFoundComponent </text>
</g>
<!-- PageNotFoundModule&#45;&gt;PageNotFoundComponent  -->
<g id="edge21" class="edge">
<title>PageNotFoundModule&#45;&gt;PageNotFoundComponent </title>
<path fill="none" stroke="#000000" stroke-dasharray="5,2" d="M1312.1337,-161.9891C1312.1337,-161.9891 1312.1337,-132.145 1312.1337,-132.145"/>
<polygon fill="#000000" stroke="#000000" points="1315.6338,-132.145 1312.1337,-122.145 1308.6338,-132.1451 1315.6338,-132.145"/>
</g>
<!-- SharedModule -->
<g id="node8" class="node">
<title>SharedModule</title>
<polygon fill="#8dd3c7" stroke="#000000" points="1529.4231,-198 1526.4231,-202 1505.4231,-202 1502.4231,-198 1430.5769,-198 1430.5769,-162 1529.4231,-162 1529.4231,-198"/>
<text text-anchor="middle" x="1480" y="-175.8" font-family="Times,serif" font-size="14.00" fill="#000000">SharedModule</text>
</g>
<!-- SharedModule&#45;&gt;AppModule -->
<g id="edge7" class="edge">
<title>SharedModule&#45;&gt;AppModule</title>
<path fill="none" stroke="#000000" d="M1496.4037,-198.0251C1496.4037,-237.2783 1496.4037,-327 1496.4037,-327 1496.4037,-327 1255.8943,-327 1255.8943,-327"/>
<polygon fill="#000000" stroke="#000000" points="1255.8944,-323.5001 1245.8943,-327 1255.8943,-330.5001 1255.8944,-323.5001"/>
</g>
<!-- SharedModule&#45;&gt;ItemsModule -->
<g id="edge17" class="edge">
<title>SharedModule&#45;&gt;ItemsModule</title>
<path fill="none" stroke="#000000" d="M1463.5963,-198.308C1463.5963,-218.1455 1463.5963,-247 1463.5963,-247 1463.5963,-247 1006.4895,-247 1006.4895,-247"/>
<polygon fill="#000000" stroke="#000000" points="1006.4895,-243.5001 996.4895,-247 1006.4895,-250.5001 1006.4895,-243.5001"/>
</g>
<!-- FilterPipe  -->
<g id="node28" class="node">
<title>FilterPipe </title>
<polygon fill="#fb8072" stroke="#000000" points="2188.2179,-274 2113.7821,-274 2113.7821,-238 2188.2179,-238 2188.2179,-274"/>
<text text-anchor="middle" x="2151" y="-251.8" font-family="Times,serif" font-size="14.00" fill="#000000">FilterPipe </text>
</g>
<!-- SharedModule&#45;&gt;FilterPipe  -->
<g id="edge28" class="edge">
<title>SharedModule&#45;&gt;FilterPipe </title>
<path fill="none" stroke="#000000" stroke-dasharray="5,2" d="M1529.3402,-187C1684.2994,-187 2151,-187 2151,-187 2151,-187 2151,-227.8711 2151,-227.8711"/>
<polygon fill="#000000" stroke="#000000" points="2147.5001,-227.871 2151,-237.8711 2154.5001,-227.8711 2147.5001,-227.871"/>
</g>
<!-- FormComponent  -->
<g id="node29" class="node">
<title>FormComponent </title>
<polygon fill="#fb8072" stroke="#000000" points="2095.6663,-274 1980.3337,-274 1980.3337,-238 2095.6663,-238 2095.6663,-274"/>
<text text-anchor="middle" x="2038" y="-251.8" font-family="Times,serif" font-size="14.00" fill="#000000">FormComponent </text>
</g>
<!-- SharedModule&#45;&gt;FormComponent  -->
<g id="edge29" class="edge">
<title>SharedModule&#45;&gt;FormComponent </title>
<path fill="none" stroke="#000000" stroke-dasharray="5,2" d="M1529.5188,-190C1666.0823,-190 2038,-190 2038,-190 2038,-190 2038,-227.9652 2038,-227.9652"/>
<polygon fill="#000000" stroke="#000000" points="2034.5001,-227.9652 2038,-237.9652 2041.5001,-227.9652 2034.5001,-227.9652"/>
</g>
<!-- NavComponent  -->
<g id="node30" class="node">
<title>NavComponent </title>
<polygon fill="#fb8072" stroke="#000000" points="1962.1537,-274 1853.8463,-274 1853.8463,-238 1962.1537,-238 1962.1537,-274"/>
<text text-anchor="middle" x="1908" y="-251.8" font-family="Times,serif" font-size="14.00" fill="#000000">NavComponent </text>
</g>
<!-- SharedModule&#45;&gt;NavComponent  -->
<g id="edge30" class="edge">
<title>SharedModule&#45;&gt;NavComponent </title>
<path fill="none" stroke="#000000" stroke-dasharray="5,2" d="M1529.5152,-193C1642.178,-193 1908,-193 1908,-193 1908,-193 1908,-227.7778 1908,-227.7778"/>
<polygon fill="#000000" stroke="#000000" points="1904.5001,-227.7778 1908,-237.7778 1911.5001,-227.7778 1904.5001,-227.7778"/>
</g>
<!-- NumCommandePipe  -->
<g id="node31" class="node">
<title>NumCommandePipe </title>
<polygon fill="#fb8072" stroke="#000000" points="1835.432,-274 1698.568,-274 1698.568,-238 1835.432,-238 1835.432,-274"/>
<text text-anchor="middle" x="1767" y="-251.8" font-family="Times,serif" font-size="14.00" fill="#000000">NumCommandePipe </text>
</g>
<!-- SharedModule&#45;&gt;NumCommandePipe  -->
<g id="edge31" class="edge">
<title>SharedModule&#45;&gt;NumCommandePipe </title>
<path fill="none" stroke="#000000" stroke-dasharray="5,2" d="M1529.3371,-196C1611.3946,-196 1767,-196 1767,-196 1767,-196 1767,-227.998 1767,-227.998"/>
<polygon fill="#000000" stroke="#000000" points="1763.5001,-227.998 1767,-237.998 1770.5001,-227.9981 1763.5001,-227.998"/>
</g>
<!-- StateButtonDirective  -->
<g id="node32" class="node">
<title>StateButtonDirective </title>
<polygon fill="#fb8072" stroke="#000000" points="2461.6939,-274 2324.3061,-274 2324.3061,-238 2461.6939,-238 2461.6939,-274"/>
<text text-anchor="middle" x="2393" y="-251.8" font-family="Times,serif" font-size="14.00" fill="#000000">StateButtonDirective </text>
</g>
<!-- SharedModule&#45;&gt;StateButtonDirective  -->
<g id="edge32" class="edge">
<title>SharedModule&#45;&gt;StateButtonDirective </title>
<path fill="none" stroke="#000000" stroke-dasharray="5,2" d="M1529.4106,-182C1719.4923,-182 2393,-182 2393,-182 2393,-182 2393,-227.7079 2393,-227.7079"/>
<polygon fill="#000000" stroke="#000000" points="2389.5001,-227.7078 2393,-237.7079 2396.5001,-227.7079 2389.5001,-227.7078"/>
</g>
<!-- StateDirective  -->
<g id="node33" class="node">
<title>StateDirective </title>
<polygon fill="#fb8072" stroke="#000000" points="2305.5767,-274 2206.4233,-274 2206.4233,-238 2305.5767,-238 2305.5767,-274"/>
<text text-anchor="middle" x="2256" y="-251.8" font-family="Times,serif" font-size="14.00" fill="#000000">StateDirective </text>
</g>
<!-- SharedModule&#45;&gt;StateDirective  -->
<g id="edge33" class="edge">
<title>SharedModule&#45;&gt;StateDirective </title>
<path fill="none" stroke="#000000" stroke-dasharray="5,2" d="M1529.4265,-185C1700.353,-185 2256,-185 2256,-185 2256,-185 2256,-227.7157 2256,-227.7157"/>
<polygon fill="#000000" stroke="#000000" points="2252.5001,-227.7157 2256,-237.7157 2259.5001,-227.7158 2252.5001,-227.7157"/>
</g>
<!-- HomeComponent -->
<g id="node10" class="node">
<title>HomeComponent</title>
<polygon fill="#ffffb3" stroke="#000000" points="1238.5451,-122 1123.4549,-122 1123.4549,-86 1238.5451,-86 1238.5451,-122"/>
<text text-anchor="middle" x="1181" y="-99.8" font-family="Times,serif" font-size="14.00" fill="#000000">HomeComponent</text>
</g>
<!-- HomeComponent&#45;&gt;HomeModule -->
<g id="edge9" class="edge">
<title>HomeComponent&#45;&gt;HomeModule</title>
<path fill="none" stroke="#000000" d="M1218.3589,-122.0109C1218.3589,-122.0109 1218.3589,-151.855 1218.3589,-151.855"/>
<polygon fill="#000000" stroke="#000000" points="1214.859,-151.8549 1218.3589,-161.855 1221.859,-151.855 1214.859,-151.8549"/>
</g>
<!-- HomeRoutingModule -->
<g id="node11" class="node">
<title>HomeRoutingModule</title>
<polygon fill="#8dd3c7" stroke="#000000" points="1099.3795,-122 1096.3795,-126 1075.3795,-126 1072.3795,-122 960.6205,-122 960.6205,-86 1099.3795,-86 1099.3795,-122"/>
<text text-anchor="middle" x="1030" y="-99.8" font-family="Times,serif" font-size="14.00" fill="#000000">HomeRoutingModule</text>
</g>
<!-- HomeRoutingModule&#45;&gt;HomeModule -->
<g id="edge10" class="edge">
<title>HomeRoutingModule&#45;&gt;HomeModule</title>
<path fill="none" stroke="#000000" d="M1076.0295,-122.0555C1076.0295,-133.439 1076.0295,-146 1076.0295,-146 1076.0295,-146 1197.9457,-146 1197.9457,-146 1197.9457,-146 1197.9457,-151.8056 1197.9457,-151.8056"/>
<polygon fill="#000000" stroke="#000000" points="1194.4457,-151.8055 1197.9457,-161.8056 1201.4457,-151.8056 1194.4457,-151.8055"/>
</g>
<!-- AddComponent -->
<g id="node13" class="node">
<title>AddComponent</title>
<polygon fill="#ffffb3" stroke="#000000" points="594.9399,-198 489.0601,-198 489.0601,-162 594.9399,-162 594.9399,-198"/>
<text text-anchor="middle" x="542" y="-175.8" font-family="Times,serif" font-size="14.00" fill="#000000">AddComponent</text>
</g>
<!-- AddComponent&#45;&gt;ItemsModule -->
<g id="edge12" class="edge">
<title>AddComponent&#45;&gt;ItemsModule</title>
<path fill="none" stroke="#000000" d="M542,-198.2921C542,-220.2057 542,-254 542,-254 542,-254 895.6671,-254 895.6671,-254"/>
<polygon fill="#000000" stroke="#000000" points="895.6672,-257.5001 905.6671,-254 895.6671,-250.5001 895.6672,-257.5001"/>
</g>
<!-- AddItemComponent -->
<g id="node14" class="node">
<title>AddItemComponent</title>
<polygon fill="#ffffb3" stroke="#000000" points="471.5954,-198 340.4046,-198 340.4046,-162 471.5954,-162 471.5954,-198"/>
<text text-anchor="middle" x="406" y="-175.8" font-family="Times,serif" font-size="14.00" fill="#000000">AddItemComponent</text>
</g>
<!-- AddItemComponent&#45;&gt;ItemsModule -->
<g id="edge13" class="edge">
<title>AddItemComponent&#45;&gt;ItemsModule</title>
<path fill="none" stroke="#000000" d="M406,-198.3228C406,-221.6602 406,-259 406,-259 406,-259 895.471,-259 895.471,-259"/>
<polygon fill="#000000" stroke="#000000" points="895.471,-262.5001 905.471,-259 895.471,-255.5001 895.471,-262.5001"/>
</g>
<!-- ItemComponent -->
<g id="node15" class="node">
<title>ItemComponent</title>
<polygon fill="#ffffb3" stroke="#000000" points="866.4888,-198 759.5112,-198 759.5112,-162 866.4888,-162 866.4888,-198"/>
<text text-anchor="middle" x="813" y="-175.8" font-family="Times,serif" font-size="14.00" fill="#000000">ItemComponent</text>
</g>
<!-- ItemComponent&#45;&gt;ItemsModule -->
<g id="edge14" class="edge">
<title>ItemComponent&#45;&gt;ItemsModule</title>
<path fill="none" stroke="#000000" d="M813,-198.1686C813,-217.0898 813,-244 813,-244 813,-244 895.8136,-244 895.8136,-244"/>
<polygon fill="#000000" stroke="#000000" points="895.8137,-247.5001 905.8136,-244 895.8136,-240.5001 895.8137,-247.5001"/>
</g>
<!-- ListItemComponent -->
<g id="node16" class="node">
<title>ListItemComponent</title>
<polygon fill="#ffffb3" stroke="#000000" points="741.2674,-198 612.7326,-198 612.7326,-162 741.2674,-162 741.2674,-198"/>
<text text-anchor="middle" x="677" y="-175.8" font-family="Times,serif" font-size="14.00" fill="#000000">ListItemComponent</text>
</g>
<!-- ListItemComponent&#45;&gt;ItemsModule -->
<g id="edge15" class="edge">
<title>ListItemComponent&#45;&gt;ItemsModule</title>
<path fill="none" stroke="#000000" d="M677,-198.1289C677,-218.5724 677,-249 677,-249 677,-249 895.7545,-249 895.7545,-249"/>
<polygon fill="#000000" stroke="#000000" points="895.7545,-252.5001 905.7545,-249 895.7544,-245.5001 895.7545,-252.5001"/>
</g>
<!-- ItemsRoutingModule -->
<g id="node17" class="node">
<title>ItemsRoutingModule</title>
<polygon fill="#8dd3c7" stroke="#000000" points="315.7688,-198 312.7688,-202 291.7688,-202 288.7688,-198 180.2312,-198 180.2312,-162 315.7688,-162 315.7688,-198"/>
<text text-anchor="middle" x="248" y="-175.8" font-family="Times,serif" font-size="14.00" fill="#000000">ItemsRoutingModule</text>
</g>
<!-- ItemsRoutingModule&#45;&gt;ItemsModule -->
<g id="edge16" class="edge">
<title>ItemsRoutingModule&#45;&gt;ItemsModule</title>
<path fill="none" stroke="#000000" d="M248,-198.2267C248,-222.9318 248,-264 248,-264 248,-264 895.6857,-264 895.6857,-264"/>
<polygon fill="#000000" stroke="#000000" points="895.6857,-267.5001 905.6857,-264 895.6856,-260.5001 895.6857,-267.5001"/>
</g>
<!-- PageNotFoundComponent -->
<g id="node19" class="node">
<title>PageNotFoundComponent</title>
<polygon fill="#ffffb3" stroke="#000000" points="1848.8243,-122 1683.1757,-122 1683.1757,-86 1848.8243,-86 1848.8243,-122"/>
<text text-anchor="middle" x="1766" y="-99.8" font-family="Times,serif" font-size="14.00" fill="#000000">PageNotFoundComponent</text>
</g>
<!-- PageNotFoundComponent&#45;&gt;PageNotFoundModule -->
<g id="edge19" class="edge">
<title>PageNotFoundComponent&#45;&gt;PageNotFoundModule</title>
<path fill="none" stroke="#000000" d="M1690.936,-122.1944C1690.936,-130.2782 1690.936,-138 1690.936,-138 1690.936,-138 1379.225,-138 1379.225,-138 1379.225,-138 1379.225,-151.9445 1379.225,-151.9445"/>
<polygon fill="#000000" stroke="#000000" points="1375.7251,-151.9444 1379.225,-161.9445 1382.7251,-151.9445 1375.7251,-151.9444"/>
</g>
<!-- PageNotFoundRoutingModule -->
<g id="node20" class="node">
<title>PageNotFoundRoutingModule</title>
<polygon fill="#8dd3c7" stroke="#000000" points="1659.1595,-122 1656.1595,-126 1635.1595,-126 1632.1595,-122 1470.8405,-122 1470.8405,-86 1659.1595,-86 1659.1595,-122"/>
<text text-anchor="middle" x="1565" y="-99.8" font-family="Times,serif" font-size="14.00" fill="#000000">PageNotFoundRoutingModule</text>
</g>
<!-- PageNotFoundRoutingModule&#45;&gt;PageNotFoundModule -->
<g id="edge20" class="edge">
<title>PageNotFoundRoutingModule&#45;&gt;PageNotFoundModule</title>
<path fill="none" stroke="#000000" d="M1499.9408,-122.0579C1499.9408,-126.4945 1499.9408,-130 1499.9408,-130 1499.9408,-130 1345.6793,-130 1345.6793,-130 1345.6793,-130 1345.6793,-151.9489 1345.6793,-151.9489"/>
<polygon fill="#000000" stroke="#000000" points="1342.1794,-151.9488 1345.6793,-161.9489 1349.1794,-151.9489 1342.1794,-151.9488"/>
</g>
<!-- FilterPipe -->
<g id="node22" class="node">
<title>FilterPipe</title>
<polygon fill="#ffffb3" stroke="#000000" points="2960.7177,-274 2889.2823,-274 2889.2823,-238 2960.7177,-238 2960.7177,-274"/>
<text text-anchor="middle" x="2925" y="-251.8" font-family="Times,serif" font-size="14.00" fill="#000000">FilterPipe</text>
</g>
<!-- FilterPipe&#45;&gt;SharedModule -->
<g id="edge22" class="edge">
<title>FilterPipe&#45;&gt;SharedModule</title>
<path fill="none" stroke="#000000" d="M2925,-237.9737C2925,-213.0227 2925,-171 2925,-171 2925,-171 1539.3221,-171 1539.3221,-171"/>
<polygon fill="#000000" stroke="#000000" points="1539.3222,-167.5001 1529.3221,-171 1539.3221,-174.5001 1539.3222,-167.5001"/>
</g>
<!-- FormComponent -->
<g id="node23" class="node">
<title>FormComponent</title>
<polygon fill="#ffffb3" stroke="#000000" points="2871.6667,-274 2760.3333,-274 2760.3333,-238 2871.6667,-238 2871.6667,-274"/>
<text text-anchor="middle" x="2816" y="-251.8" font-family="Times,serif" font-size="14.00" fill="#000000">FormComponent</text>
</g>
<!-- FormComponent&#45;&gt;SharedModule -->
<g id="edge23" class="edge">
<title>FormComponent&#45;&gt;SharedModule</title>
<path fill="none" stroke="#000000" d="M2816,-237.8015C2816,-213.6437 2816,-174 2816,-174 2816,-174 1539.5332,-174 1539.5332,-174"/>
<polygon fill="#000000" stroke="#000000" points="1539.5332,-170.5001 1529.5332,-174 1539.5332,-177.5001 1539.5332,-170.5001"/>
</g>
<!-- NavComponent -->
<g id="node24" class="node">
<title>NavComponent</title>
<polygon fill="#ffffb3" stroke="#000000" points="2742.1542,-274 2637.8458,-274 2637.8458,-238 2742.1542,-238 2742.1542,-274"/>
<text text-anchor="middle" x="2690" y="-251.8" font-family="Times,serif" font-size="14.00" fill="#000000">NavComponent</text>
</g>
<!-- NavComponent&#45;&gt;SharedModule -->
<g id="edge24" class="edge">
<title>NavComponent&#45;&gt;SharedModule</title>
<path fill="none" stroke="#000000" d="M2690,-237.8468C2690,-214.2434 2690,-176 2690,-176 2690,-176 1539.31,-176 1539.31,-176"/>
<polygon fill="#000000" stroke="#000000" points="1539.31,-172.5001 1529.31,-176 1539.31,-179.5001 1539.31,-172.5001"/>
</g>
<!-- NumCommandePipe -->
<g id="node25" class="node">
<title>NumCommandePipe</title>
<polygon fill="#ffffb3" stroke="#000000" points="2619.9327,-274 2486.0673,-274 2486.0673,-238 2619.9327,-238 2619.9327,-274"/>
<text text-anchor="middle" x="2553" y="-251.8" font-family="Times,serif" font-size="14.00" fill="#000000">NumCommandePipe</text>
</g>
<!-- NumCommandePipe&#45;&gt;SharedModule -->
<g id="edge25" class="edge">
<title>NumCommandePipe&#45;&gt;SharedModule</title>
<path fill="none" stroke="#000000" d="M2553,-237.7521C2553,-214.9821 2553,-179 2553,-179 2553,-179 1539.2463,-179 1539.2463,-179"/>
<polygon fill="#000000" stroke="#000000" points="1539.2464,-175.5001 1529.2463,-179 1539.2463,-182.5001 1539.2464,-175.5001"/>
</g>
<!-- StateButtonDirective -->
<g id="node26" class="node">
<title>StateButtonDirective</title>
<polygon fill="#ffffb3" stroke="#000000" points="3227.1937,-274 3092.8063,-274 3092.8063,-238 3227.1937,-238 3227.1937,-274"/>
<text text-anchor="middle" x="3160" y="-251.8" font-family="Times,serif" font-size="14.00" fill="#000000">StateButtonDirective</text>
</g>
<!-- StateButtonDirective&#45;&gt;SharedModule -->
<g id="edge26" class="edge">
<title>StateButtonDirective&#45;&gt;SharedModule</title>
<path fill="none" stroke="#000000" d="M3160,-237.5848C3160,-210.9943 3160,-165 3160,-165 3160,-165 1539.3694,-165 1539.3694,-165"/>
<polygon fill="#000000" stroke="#000000" points="1539.3694,-161.5001 1529.3694,-165 1539.3693,-168.5001 1539.3694,-161.5001"/>
</g>
<!-- StateDirective -->
<g id="node27" class="node">
<title>StateDirective</title>
<polygon fill="#ffffb3" stroke="#000000" points="3075.0758,-274 2978.9242,-274 2978.9242,-238 3075.0758,-238 3075.0758,-274"/>
<text text-anchor="middle" x="3027" y="-251.8" font-family="Times,serif" font-size="14.00" fill="#000000">StateDirective</text>
</g>
<!-- StateDirective&#45;&gt;SharedModule -->
<g id="edge27" class="edge">
<title>StateDirective&#45;&gt;SharedModule</title>
<path fill="none" stroke="#000000" d="M3027,-237.7663C3027,-211.9906 3027,-168 3027,-168 3027,-168 1539.2856,-168 1539.2856,-168"/>
<polygon fill="#000000" stroke="#000000" points="1539.2857,-164.5001 1529.2856,-168 1539.2856,-171.5001 1539.2857,-164.5001"/>
</g>
</g>
</svg>
