<?xml version="1.0" encoding="UTF-8" standalone="no"?>
<!DOCTYPE svg PUBLIC "-//W3C//DTD SVG 1.1//EN"
 "http://www.w3.org/Graphics/SVG/1.1/DTD/svg11.dtd">
<!-- Generated by graphviz version 2.40.1 (20161225.0304)
 -->
<!-- Title: dependencies Pages: 1 -->
<svg width="819pt" height="284pt"
 viewBox="0.00 0.00 819.00 284.00" xmlns="http://www.w3.org/2000/svg" xmlns:xlink="http://www.w3.org/1999/xlink">
<g id="graph0" class="graph" transform="scale(1 1) rotate(0) translate(4 280)">
<title>dependencies</title>
<polygon fill="#ffffff" stroke="transparent" points="-4,4 -4,-280 815,-280 815,4 -4,4"/>
<text text-anchor="start" x="384.5091" y="-42.4" font-family="sans-serif" font-weight="bold" font-size="14.00" fill="#000000">Legend</text>
<polygon fill="#ffffb3" stroke="transparent" points="171.5,-10 171.5,-30 191.5,-30 191.5,-10 171.5,-10"/>
<text text-anchor="start" x="195.129" y="-15.4" font-family="sans-serif" font-size="14.00" fill="#000000"> &#160;Declarations</text>
<polygon fill="#8dd3c7" stroke="transparent" points="284.5,-10 284.5,-30 304.5,-30 304.5,-10 284.5,-10"/>
<text text-anchor="start" x="308.2251" y="-15.4" font-family="sans-serif" font-size="14.00" fill="#000000"> &#160;Module</text>
<polygon fill="#80b1d3" stroke="transparent" points="370.5,-10 370.5,-30 390.5,-30 390.5,-10 370.5,-10"/>
<text text-anchor="start" x="394.2812" y="-15.4" font-family="sans-serif" font-size="14.00" fill="#000000"> &#160;Bootstrap</text>
<polygon fill="#fdb462" stroke="transparent" points="467.5,-10 467.5,-30 487.5,-30 487.5,-10 467.5,-10"/>
<text text-anchor="start" x="491.1732" y="-15.4" font-family="sans-serif" font-size="14.00" fill="#000000"> &#160;Providers</text>
<polygon fill="#fb8072" stroke="transparent" points="563.5,-10 563.5,-30 583.5,-30 583.5,-10 563.5,-10"/>
<text text-anchor="start" x="587.2258" y="-15.4" font-family="sans-serif" font-size="14.00" fill="#000000"> &#160;Exports</text>
<g id="clust1" class="cluster">
<title>cluster_SharedModule</title>
<polygon fill="none" stroke="#000000" stroke-dasharray="1,5" points="8,-70 8,-268 803,-268 803,-70 8,-70"/>
</g>
<g id="clust2" class="cluster">
<title>cluster_SharedModule_declarations</title>
<polygon fill="none" stroke="#000000" points="29,-78 29,-130 786,-130 786,-78 29,-78"/>
</g>
<g id="clust10" class="cluster">
<title>cluster_SharedModule_exports</title>
<polygon fill="none" stroke="#000000" points="16,-208 16,-260 795,-260 795,-208 16,-208"/>
</g>
<!-- FilterPipe -->
<g id="node1" class="node">
<title>FilterPipe</title>
<polygon fill="#ffffb3" stroke="#000000" points="777.7177,-122 706.2823,-122 706.2823,-86 777.7177,-86 777.7177,-122"/>
<text text-anchor="middle" x="742" y="-99.8" font-family="Times,serif" font-size="14.00" fill="#000000">FilterPipe</text>
</g>
<!-- SharedModule -->
<g id="node7" class="node">
<title>SharedModule</title>
<polygon fill="#8dd3c7" stroke="#000000" points="423.4231,-187 420.4231,-191 399.4231,-191 396.4231,-187 324.5769,-187 324.5769,-151 423.4231,-151 423.4231,-187"/>
<text text-anchor="middle" x="374" y="-164.8" font-family="Times,serif" font-size="14.00" fill="#000000">SharedModule</text>
</g>
<!-- FilterPipe&#45;&gt;SharedModule -->
<g id="edge1" class="edge">
<title>FilterPipe&#45;&gt;SharedModule</title>
<path fill="none" stroke="#000000" d="M755.9529,-122.2222C755.9529,-140.8285 755.9529,-167 755.9529,-167 755.9529,-167 433.5421,-167 433.5421,-167"/>
<polygon fill="#000000" stroke="#000000" points="433.5421,-163.5001 423.5421,-167 433.5421,-170.5001 433.5421,-163.5001"/>
</g>
<!-- FormComponent -->
<g id="node2" class="node">
<title>FormComponent</title>
<polygon fill="#ffffb3" stroke="#000000" points="688.6667,-122 577.3333,-122 577.3333,-86 688.6667,-86 688.6667,-122"/>
<text text-anchor="middle" x="633" y="-99.8" font-family="Times,serif" font-size="14.00" fill="#000000">FormComponent</text>
</g>
<!-- FormComponent&#45;&gt;SharedModule -->
<g id="edge2" class="edge">
<title>FormComponent&#45;&gt;SharedModule</title>
<path fill="none" stroke="#000000" d="M652.361,-122.0336C652.361,-139.0597 652.361,-162 652.361,-162 652.361,-162 433.4446,-162 433.4446,-162"/>
<polygon fill="#000000" stroke="#000000" points="433.4447,-158.5001 423.4446,-162 433.4446,-165.5001 433.4447,-158.5001"/>
</g>
<!-- NavComponent -->
<g id="node3" class="node">
<title>NavComponent</title>
<polygon fill="#ffffb3" stroke="#000000" points="559.1542,-122 454.8458,-122 454.8458,-86 559.1542,-86 559.1542,-122"/>
<text text-anchor="middle" x="507" y="-99.8" font-family="Times,serif" font-size="14.00" fill="#000000">NavComponent</text>
</g>
<!-- NavComponent&#45;&gt;SharedModule -->
<g id="edge3" class="edge">
<title>NavComponent&#45;&gt;SharedModule</title>
<path fill="none" stroke="#000000" d="M524.4423,-122.2396C524.4423,-137.5706 524.4423,-157 524.4423,-157 524.4423,-157 433.2604,-157 433.2604,-157"/>
<polygon fill="#000000" stroke="#000000" points="433.2605,-153.5001 423.2604,-157 433.2604,-160.5001 433.2605,-153.5001"/>
</g>
<!-- NumCommandePipe -->
<g id="node4" class="node">
<title>NumCommandePipe</title>
<polygon fill="#ffffb3" stroke="#000000" points="436.9327,-122 303.0673,-122 303.0673,-86 436.9327,-86 436.9327,-122"/>
<text text-anchor="middle" x="370" y="-99.8" font-family="Times,serif" font-size="14.00" fill="#000000">NumCommandePipe</text>
</g>
<!-- NumCommandePipe&#45;&gt;SharedModule -->
<g id="edge4" class="edge">
<title>NumCommandePipe&#45;&gt;SharedModule</title>
<path fill="none" stroke="#000000" d="M374,-122.1061C374,-122.1061 374,-140.991 374,-140.991"/>
<polygon fill="#000000" stroke="#000000" points="370.5001,-140.9909 374,-150.991 377.5001,-140.991 370.5001,-140.9909"/>
</g>
<!-- StateButtonDirective -->
<g id="node5" class="node">
<title>StateButtonDirective</title>
<polygon fill="#ffffb3" stroke="#000000" points="285.1937,-122 150.8063,-122 150.8063,-86 285.1937,-86 285.1937,-122"/>
<text text-anchor="middle" x="218" y="-99.8" font-family="Times,serif" font-size="14.00" fill="#000000">StateButtonDirective</text>
</g>
<!-- StateButtonDirective&#45;&gt;SharedModule -->
<g id="edge5" class="edge">
<title>StateButtonDirective&#45;&gt;SharedModule</title>
<path fill="none" stroke="#000000" d="M236.8656,-122.0091C236.8656,-138.0494 236.8656,-159 236.8656,-159 236.8656,-159 314.4913,-159 314.4913,-159"/>
<polygon fill="#000000" stroke="#000000" points="314.4914,-162.5001 324.4913,-159 314.4913,-155.5001 314.4914,-162.5001"/>
</g>
<!-- StateDirective -->
<g id="node6" class="node">
<title>StateDirective</title>
<polygon fill="#ffffb3" stroke="#000000" points="133.0758,-122 36.9242,-122 36.9242,-86 133.0758,-86 133.0758,-122"/>
<text text-anchor="middle" x="85" y="-99.8" font-family="Times,serif" font-size="14.00" fill="#000000">StateDirective</text>
</g>
<!-- StateDirective&#45;&gt;SharedModule -->
<g id="edge6" class="edge">
<title>StateDirective&#45;&gt;SharedModule</title>
<path fill="none" stroke="#000000" d="M128.4129,-122.2667C128.4129,-140.5552 128.4129,-166 128.4129,-166 128.4129,-166 314.5972,-166 314.5972,-166"/>
<polygon fill="#000000" stroke="#000000" points="314.5972,-169.5001 324.5972,-166 314.5972,-162.5001 314.5972,-169.5001"/>
</g>
<!-- FilterPipe  -->
<g id="node8" class="node">
<title>FilterPipe </title>
<polygon fill="#fb8072" stroke="#000000" points="787.2179,-252 712.7821,-252 712.7821,-216 787.2179,-216 787.2179,-252"/>
<text text-anchor="middle" x="750" y="-229.8" font-family="Times,serif" font-size="14.00" fill="#000000">FilterPipe </text>
</g>
<!-- SharedModule&#45;&gt;FilterPipe  -->
<g id="edge7" class="edge">
<title>SharedModule&#45;&gt;FilterPipe </title>
<path fill="none" stroke="#000000" stroke-dasharray="5,2" d="M423.3423,-172C522.0186,-172 734.2971,-172 734.2971,-172 734.2971,-172 734.2971,-205.7333 734.2971,-205.7333"/>
<polygon fill="#000000" stroke="#000000" points="730.7972,-205.7333 734.2971,-215.7333 737.7972,-205.7333 730.7972,-205.7333"/>
</g>
<!-- FormComponent  -->
<g id="node9" class="node">
<title>FormComponent </title>
<polygon fill="#fb8072" stroke="#000000" points="694.6663,-252 579.3337,-252 579.3337,-216 694.6663,-216 694.6663,-252"/>
<text text-anchor="middle" x="637" y="-229.8" font-family="Times,serif" font-size="14.00" fill="#000000">FormComponent </text>
</g>
<!-- SharedModule&#45;&gt;FormComponent  -->
<g id="edge8" class="edge">
<title>SharedModule&#45;&gt;FormComponent </title>
<path fill="none" stroke="#000000" stroke-dasharray="5,2" d="M423.2414,-177C493.9662,-177 615.889,-177 615.889,-177 615.889,-177 615.889,-205.9648 615.889,-205.9648"/>
<polygon fill="#000000" stroke="#000000" points="612.3891,-205.9648 615.889,-215.9648 619.3891,-205.9649 612.3891,-205.9648"/>
</g>
<!-- NavComponent  -->
<g id="node10" class="node">
<title>NavComponent </title>
<polygon fill="#fb8072" stroke="#000000" points="561.1537,-252 452.8463,-252 452.8463,-216 561.1537,-216 561.1537,-252"/>
<text text-anchor="middle" x="507" y="-229.8" font-family="Times,serif" font-size="14.00" fill="#000000">NavComponent </text>
</g>
<!-- SharedModule&#45;&gt;NavComponent  -->
<g id="edge9" class="edge">
<title>SharedModule&#45;&gt;NavComponent </title>
<path fill="none" stroke="#000000" stroke-dasharray="5,2" d="M423.3421,-182C454.7503,-182 489.5577,-182 489.5577,-182 489.5577,-182 489.5577,-205.8129 489.5577,-205.8129"/>
<polygon fill="#000000" stroke="#000000" points="486.0578,-205.8129 489.5577,-215.8129 493.0578,-205.813 486.0578,-205.8129"/>
</g>
<!-- NumCommandePipe  -->
<g id="node11" class="node">
<title>NumCommandePipe </title>
<polygon fill="#fb8072" stroke="#000000" points="434.432,-252 297.568,-252 297.568,-216 434.432,-216 434.432,-252"/>
<text text-anchor="middle" x="366" y="-229.8" font-family="Times,serif" font-size="14.00" fill="#000000">NumCommandePipe </text>
</g>
<!-- SharedModule&#45;&gt;NumCommandePipe  -->
<g id="edge10" class="edge">
<title>SharedModule&#45;&gt;NumCommandePipe </title>
<path fill="none" stroke="#000000" stroke-dasharray="5,2" d="M374,-187.1061C374,-187.1061 374,-205.991 374,-205.991"/>
<polygon fill="#000000" stroke="#000000" points="370.5001,-205.9909 374,-215.991 377.5001,-205.991 370.5001,-205.9909"/>
</g>
<!-- StateButtonDirective  -->
<g id="node12" class="node">
<title>StateButtonDirective </title>
<polygon fill="#fb8072" stroke="#000000" points="279.6939,-252 142.3061,-252 142.3061,-216 279.6939,-216 279.6939,-252"/>
<text text-anchor="middle" x="211" y="-229.8" font-family="Times,serif" font-size="14.00" fill="#000000">StateButtonDirective </text>
</g>
<!-- SharedModule&#45;&gt;StateButtonDirective  -->
<g id="edge11" class="edge">
<title>SharedModule&#45;&gt;StateButtonDirective </title>
<path fill="none" stroke="#000000" stroke-dasharray="5,2" d="M324.7826,-180C271.4537,-180 193.8844,-180 193.8844,-180 193.8844,-180 193.8844,-205.7181 193.8844,-205.7181"/>
<polygon fill="#000000" stroke="#000000" points="190.3845,-205.718 193.8844,-215.7181 197.3845,-205.7181 190.3845,-205.718"/>
</g>
<!-- StateDirective  -->
<g id="node13" class="node">
<title>StateDirective </title>
<polygon fill="#fb8072" stroke="#000000" points="123.5767,-252 24.4233,-252 24.4233,-216 123.5767,-216 123.5767,-252"/>
<text text-anchor="middle" x="74" y="-229.8" font-family="Times,serif" font-size="14.00" fill="#000000">StateDirective </text>
</g>
<!-- SharedModule&#45;&gt;StateDirective  -->
<g id="edge12" class="edge">
<title>SharedModule&#45;&gt;StateDirective </title>
<path fill="none" stroke="#000000" stroke-dasharray="5,2" d="M324.5226,-173C240.8417,-173 80.375,-173 80.375,-173 80.375,-173 80.375,-205.698 80.375,-205.698"/>
<polygon fill="#000000" stroke="#000000" points="76.8751,-205.698 80.375,-215.698 83.8751,-205.698 76.8751,-205.698"/>
</g>
</g>
</svg>
