<?xml version="1.0" encoding="UTF-8" standalone="no"?>
<!DOCTYPE svg PUBLIC "-//W3C//DTD SVG 1.1//EN"
 "http://www.w3.org/Graphics/SVG/1.1/DTD/svg11.dtd">
<!-- Generated by graphviz version 2.40.1 (20161225.0304)
 -->
<!-- Title: dependencies Pages: 1 -->
<svg width="858pt" height="284pt"
 viewBox="0.00 0.00 858.00 284.00" xmlns="http://www.w3.org/2000/svg" xmlns:xlink="http://www.w3.org/1999/xlink">
<g id="graph0" class="graph" transform="scale(1 1) rotate(0) translate(4 280)">
<title>dependencies</title>
<polygon fill="#ffffff" stroke="transparent" points="-4,4 -4,-280 854,-280 854,4 -4,4"/>
<text text-anchor="start" x="404.0091" y="-42.4" font-family="sans-serif" font-weight="bold" font-size="14.00" fill="#000000">Legend</text>
<polygon fill="#ffffb3" stroke="transparent" points="191,-10 191,-30 211,-30 211,-10 191,-10"/>
<text text-anchor="start" x="214.629" y="-15.4" font-family="sans-serif" font-size="14.00" fill="#000000"> &#160;Declarations</text>
<polygon fill="#8dd3c7" stroke="transparent" points="304,-10 304,-30 324,-30 324,-10 304,-10"/>
<text text-anchor="start" x="327.7251" y="-15.4" font-family="sans-serif" font-size="14.00" fill="#000000"> &#160;Module</text>
<polygon fill="#80b1d3" stroke="transparent" points="390,-10 390,-30 410,-30 410,-10 390,-10"/>
<text text-anchor="start" x="413.7812" y="-15.4" font-family="sans-serif" font-size="14.00" fill="#000000"> &#160;Bootstrap</text>
<polygon fill="#fdb462" stroke="transparent" points="487,-10 487,-30 507,-30 507,-10 487,-10"/>
<text text-anchor="start" x="510.6732" y="-15.4" font-family="sans-serif" font-size="14.00" fill="#000000"> &#160;Providers</text>
<polygon fill="#fb8072" stroke="transparent" points="583,-10 583,-30 603,-30 603,-10 583,-10"/>
<text text-anchor="start" x="606.7258" y="-15.4" font-family="sans-serif" font-size="14.00" fill="#000000"> &#160;Exports</text>
<g id="clust1" class="cluster">
<title>cluster_ItemsModule</title>
<polygon fill="none" stroke="#000000" stroke-dasharray="1,5" points="8,-70 8,-268 842,-268 842,-70 8,-70"/>
</g>
<g id="clust2" class="cluster">
<title>cluster_ItemsModule_declarations</title>
<polygon fill="none" stroke="#000000" points="292,-78 292,-130 834,-130 834,-78 292,-78"/>
</g>
<g id="clust7" class="cluster">
<title>cluster_ItemsModule_imports</title>
<polygon fill="none" stroke="#000000" points="16,-78 16,-130 284,-130 284,-78 16,-78"/>
</g>
<g id="clust8" class="cluster">
<title>cluster_ItemsModule_exports</title>
<polygon fill="none" stroke="#000000" points="358,-208 358,-260 506,-260 506,-208 358,-208"/>
</g>
<!-- AddComponent -->
<g id="node1" class="node">
<title>AddComponent</title>
<polygon fill="#ffffb3" stroke="#000000" points="825.9399,-122 720.0601,-122 720.0601,-86 825.9399,-86 825.9399,-122"/>
<text text-anchor="middle" x="773" y="-99.8" font-family="Times,serif" font-size="14.00" fill="#000000">AddComponent</text>
</g>
<!-- ItemsModule -->
<g id="node5" class="node">
<title>ItemsModule</title>
<polygon fill="#8dd3c7" stroke="#000000" points="477.1515,-187 474.1515,-191 453.1515,-191 450.1515,-187 386.8485,-187 386.8485,-151 477.1515,-151 477.1515,-187"/>
<text text-anchor="middle" x="432" y="-164.8" font-family="Times,serif" font-size="14.00" fill="#000000">ItemsModule</text>
</g>
<!-- AddComponent&#45;&gt;ItemsModule -->
<g id="edge1" class="edge">
<title>AddComponent&#45;&gt;ItemsModule</title>
<path fill="none" stroke="#000000" d="M773,-122.2843C773,-143.3211 773,-175 773,-175 773,-175 487.2822,-175 487.2822,-175"/>
<polygon fill="#000000" stroke="#000000" points="487.2822,-171.5001 477.2822,-175 487.2821,-178.5001 487.2822,-171.5001"/>
</g>
<!-- AddItemComponent -->
<g id="node2" class="node">
<title>AddItemComponent</title>
<polygon fill="#ffffb3" stroke="#000000" points="702.5954,-122 571.4046,-122 571.4046,-86 702.5954,-86 702.5954,-122"/>
<text text-anchor="middle" x="637" y="-99.8" font-family="Times,serif" font-size="14.00" fill="#000000">AddItemComponent</text>
</g>
<!-- AddItemComponent&#45;&gt;ItemsModule -->
<g id="edge2" class="edge">
<title>AddItemComponent&#45;&gt;ItemsModule</title>
<path fill="none" stroke="#000000" d="M637,-122.0225C637,-139.3734 637,-163 637,-163 637,-163 487.2419,-163 487.2419,-163"/>
<polygon fill="#000000" stroke="#000000" points="487.2419,-159.5001 477.2419,-163 487.2419,-166.5001 487.2419,-159.5001"/>
</g>
<!-- ItemComponent -->
<g id="node3" class="node">
<title>ItemComponent</title>
<polygon fill="#ffffb3" stroke="#000000" points="553.4888,-122 446.5112,-122 446.5112,-86 553.4888,-86 553.4888,-122"/>
<text text-anchor="middle" x="500" y="-99.8" font-family="Times,serif" font-size="14.00" fill="#000000">ItemComponent</text>
</g>
<!-- ItemComponent&#45;&gt;ItemsModule -->
<g id="edge3" class="edge">
<title>ItemComponent&#45;&gt;ItemsModule</title>
<path fill="none" stroke="#000000" d="M461.9155,-122.1061C461.9155,-122.1061 461.9155,-140.991 461.9155,-140.991"/>
<polygon fill="#000000" stroke="#000000" points="458.4156,-140.9909 461.9155,-150.991 465.4156,-140.991 458.4156,-140.9909"/>
</g>
<!-- ListItemComponent -->
<g id="node4" class="node">
<title>ListItemComponent</title>
<polygon fill="#ffffb3" stroke="#000000" points="428.2674,-122 299.7326,-122 299.7326,-86 428.2674,-86 428.2674,-122"/>
<text text-anchor="middle" x="364" y="-99.8" font-family="Times,serif" font-size="14.00" fill="#000000">ListItemComponent</text>
</g>
<!-- ListItemComponent&#45;&gt;ItemsModule -->
<g id="edge4" class="edge">
<title>ListItemComponent&#45;&gt;ItemsModule</title>
<path fill="none" stroke="#000000" d="M407.5291,-122.1061C407.5291,-122.1061 407.5291,-140.991 407.5291,-140.991"/>
<polygon fill="#000000" stroke="#000000" points="404.0292,-140.9909 407.5291,-150.991 411.0292,-140.991 404.0292,-140.9909"/>
</g>
<!-- ListItemComponent  -->
<g id="node8" class="node">
<title>ListItemComponent </title>
<polygon fill="#fb8072" stroke="#000000" points="498.2675,-252 365.7325,-252 365.7325,-216 498.2675,-216 498.2675,-252"/>
<text text-anchor="middle" x="432" y="-229.8" font-family="Times,serif" font-size="14.00" fill="#000000">ListItemComponent </text>
</g>
<!-- ItemsModule&#45;&gt;ListItemComponent  -->
<g id="edge7" class="edge">
<title>ItemsModule&#45;&gt;ListItemComponent </title>
<path fill="none" stroke="#000000" stroke-dasharray="5,2" d="M432,-187.1061C432,-187.1061 432,-205.991 432,-205.991"/>
<polygon fill="#000000" stroke="#000000" points="428.5001,-205.9909 432,-215.991 435.5001,-205.991 428.5001,-205.9909"/>
</g>
<!-- ItemsRoutingModule -->
<g id="node6" class="node">
<title>ItemsRoutingModule</title>
<polygon fill="#8dd3c7" stroke="#000000" points="275.7688,-122 272.7688,-126 251.7688,-126 248.7688,-122 140.2312,-122 140.2312,-86 275.7688,-86 275.7688,-122"/>
<text text-anchor="middle" x="208" y="-99.8" font-family="Times,serif" font-size="14.00" fill="#000000">ItemsRoutingModule</text>
</g>
<!-- ItemsRoutingModule&#45;&gt;ItemsModule -->
<g id="edge5" class="edge">
<title>ItemsRoutingModule&#45;&gt;ItemsModule</title>
<path fill="none" stroke="#000000" d="M208,-122.0225C208,-139.3734 208,-163 208,-163 208,-163 376.6703,-163 376.6703,-163"/>
<polygon fill="#000000" stroke="#000000" points="376.6703,-166.5001 386.6703,-163 376.6702,-159.5001 376.6703,-166.5001"/>
</g>
<!-- SharedModule -->
<g id="node7" class="node">
<title>SharedModule</title>
<polygon fill="#8dd3c7" stroke="#000000" points="122.4231,-122 119.4231,-126 98.4231,-126 95.4231,-122 23.5769,-122 23.5769,-86 122.4231,-86 122.4231,-122"/>
<text text-anchor="middle" x="73" y="-99.8" font-family="Times,serif" font-size="14.00" fill="#000000">SharedModule</text>
</g>
<!-- SharedModule&#45;&gt;ItemsModule -->
<g id="edge6" class="edge">
<title>SharedModule&#45;&gt;ItemsModule</title>
<path fill="none" stroke="#000000" d="M73,-122.2843C73,-143.3211 73,-175 73,-175 73,-175 376.5324,-175 376.5324,-175"/>
<polygon fill="#000000" stroke="#000000" points="376.5324,-178.5001 386.5324,-175 376.5324,-171.5001 376.5324,-178.5001"/>
</g>
</g>
</svg>
